<svg width="15.000000" height="15.000000" viewBox="0 0 15 15" fill="none" xmlns="http://www.w3.org/2000/svg" xmlns:xlink="http://www.w3.org/1999/xlink">
	<desc>
			Created with Pixso.
	</desc>
	<defs>
		<clipPath id="clip3_132">
			<rect rx="0.000000" width="14.000000" height="14.000000" transform="translate(0.500000 0.500000)" fill="white" fill-opacity="0"/>
		</clipPath>
	</defs>
	<rect rx="0.000000" width="14.000000" height="14.000000" transform="translate(0.500000 0.500000)" fill="#FFFFFF" fill-opacity="0"/>
	<g clip-path="url(#clip3_132)">
		<path d="M12.46 0.11C12.23 0.17 12.12 0.22 11.92 0.36C11.79 0.44 5.11 7.08 5 7.24C4.94 7.32 4.04 10.52 4.04 10.66C4.04 10.82 4.23 11.01 4.4 11.01C4.52 11.01 7.73 10.11 7.81 10.05C7.86 10.01 9.4 8.48 11.25 6.62C13.7 4.17 14.64 3.21 14.73 3.07C14.95 2.73 15.04 2.28 14.97 1.88C14.95 1.77 14.88 1.57 14.81 1.43C14.71 1.21 14.65 1.14 14.28 0.77C13.91 0.4 13.84 0.34 13.62 0.24C13.22 0.04 12.86 0.01 12.46 0.11ZM13.3 0.91C13.47 0.99 14.06 1.59 14.15 1.75C14.21 1.86 14.22 1.93 14.22 2.16C14.22 2.52 14.17 2.63 13.83 2.98L13.59 3.23L12.7 2.34L11.82 1.46L12.07 1.21C12.22 1.08 12.39 0.94 12.46 0.9C12.72 0.78 13.06 0.78 13.3 0.91ZM12.18 2.88L13.05 3.75L10.31 6.48L7.58 9.21L6.72 8.34C6.24 7.87 5.85 7.47 5.85 7.45C5.85 7.41 11.25 2.02 11.29 2.02C11.31 2.02 11.71 2.41 12.18 2.88ZM6.84 9.57C6.74 9.61 4.96 10.1 4.95 10.09C4.95 10.09 5.04 9.76 5.15 9.36C5.27 8.95 5.39 8.52 5.42 8.39L5.48 8.16L6.18 8.86C6.57 9.25 6.86 9.57 6.84 9.57Z" fill="#000000" fill-opacity="1.000000" fill-rule="nonzero"/>
		<path d="M1.4 1.57C0.79 1.73 0.32 2.17 0.1 2.78L0.01 3.03L0.01 8.23C0.01 13.19 0.01 13.44 0.06 13.6C0.17 13.95 0.29 14.15 0.55 14.41C0.74 14.6 0.86 14.69 1.01 14.77C1.44 14.98 1.02 14.97 7.2 14.96L12.75 14.95L12.95 14.87C13.53 14.65 13.93 14.24 14.12 13.68C14.19 13.49 14.19 13.46 14.2 11.6C14.21 9.9 14.2 9.7 14.16 9.62C14.1 9.5 13.97 9.43 13.83 9.43C13.73 9.43 13.68 9.45 13.59 9.53L13.49 9.63L13.47 11.49C13.46 13.33 13.46 13.34 13.39 13.51C13.27 13.81 13.04 14.03 12.75 14.15L12.58 14.22L7.2 14.23C3.66 14.23 1.78 14.22 1.67 14.2C1.32 14.14 1 13.9 0.86 13.58L0.77 13.4L0.77 8.24L0.77 3.09L0.86 2.9C0.96 2.67 1.21 2.43 1.45 2.33L1.62 2.27L3.47 2.25C5.53 2.23 5.41 2.25 5.52 2.03C5.58 1.88 5.56 1.75 5.43 1.62L5.32 1.52L3.44 1.52C1.88 1.52 1.54 1.53 1.4 1.57Z" fill="#000000" fill-opacity="1.000000" fill-rule="nonzero"/>
	</g>
</svg>
